
<svg xmlns="http://www.w3.org/2000/svg" version="1.1" width="64px" height="64px" style="shape-rendering:geometricPrecision; text-rendering:geometricPrecision; image-rendering:optimizeQuality; fill-rule:evenodd; clip-rule:evenodd" xmlns:xlink="http://www.w3.org/1999/xlink">
<g><path style="opacity:0.94"  d="M 23.5,-0.5 C 28.8333,-0.5 34.1667,-0.5 39.5,-0.5C 45.0221,1.26512 50.0221,4.09846 54.5,8C 58.6262,12.5995 61.6262,17.7662 63.5,23.5C 63.5,28.8333 63.5,34.1667 63.5,39.5C 61.7349,45.0221 58.9015,50.0221 55,54.5C 50.4005,58.6262 45.2338,61.6262 39.5,63.5C 34.1667,63.5 28.8333,63.5 23.5,63.5C 17.9779,61.7349 12.9779,58.9015 8.5,55C 4.37379,50.4005 1.37379,45.2338 -0.5,39.5C -0.5,34.1667 -0.5,28.8333 -0.5,23.5C 1.26512,17.9779 4.09846,12.9779 8,8.5C 12.5995,4.37379 17.7662,1.37379 23.5,-0.5 Z M 30.5,21.5 C 36.0746,25.5675 41.2413,30.2341 46,35.5C 46.4828,36.448 46.6495,37.448 46.5,38.5C 45.448,38.6495 44.448,38.4828 43.5,38C 39.6516,33.9844 35.6516,30.1511 31.5,26.5C 27.3484,30.1511 23.3484,33.9844 19.5,38C 18.552,38.4828 17.552,38.6495 16.5,38.5C 16.3505,37.448 16.5172,36.448 17,35.5C 21.7033,30.9645 26.2033,26.2979 30.5,21.5 Z"/></g>
</svg>
