<svg xmlns="http://www.w3.org/2000/svg" version="1.1" width="32px" height="32px" style="shape-rendering:geometricPrecision; text-rendering:geometricPrecision; image-rendering:optimizeQuality; fill-rule:evenodd; clip-rule:evenodd" xmlns:xlink="http://www.w3.org/1999/xlink">
<g><path style="opacity:0.885" fill="#000000" d="M 3.5,3.5 C 7.16667,3.5 10.8333,3.5 14.5,3.5C 14.5,7.16667 14.5,10.8333 14.5,14.5C 10.8333,14.5 7.16667,14.5 3.5,14.5C 3.5,10.8333 3.5,7.16667 3.5,3.5 Z M 6.5,6.5 C 8.16667,6.5 9.83333,6.5 11.5,6.5C 11.5,8.16667 11.5,9.83333 11.5,11.5C 9.83333,11.5 8.16667,11.5 6.5,11.5C 6.5,9.83333 6.5,8.16667 6.5,6.5 Z"/></g>
<g><path style="opacity:0.885" fill="#000000" d="M 16.5,3.5 C 20.1667,3.5 23.8333,3.5 27.5,3.5C 27.5,7.16667 27.5,10.8333 27.5,14.5C 23.8333,14.5 20.1667,14.5 16.5,14.5C 16.5,10.8333 16.5,7.16667 16.5,3.5 Z M 19.5,6.5 C 21.1667,6.5 22.8333,6.5 24.5,6.5C 24.5,8.16667 24.5,9.83333 24.5,11.5C 22.8333,11.5 21.1667,11.5 19.5,11.5C 19.5,9.83333 19.5,8.16667 19.5,6.5 Z"/></g>
<g><path style="opacity:0.885" fill="#000000" d="M 3.5,16.5 C 7.16667,16.5 10.8333,16.5 14.5,16.5C 14.5,20.1667 14.5,23.8333 14.5,27.5C 10.8333,27.5 7.16667,27.5 3.5,27.5C 3.5,23.8333 3.5,20.1667 3.5,16.5 Z M 6.5,19.5 C 8.16667,19.5 9.83333,19.5 11.5,19.5C 11.5,21.1667 11.5,22.8333 11.5,24.5C 9.83333,24.5 8.16667,24.5 6.5,24.5C 6.5,22.8333 6.5,21.1667 6.5,19.5 Z"/></g>
<g><path style="opacity:0.885" fill="#000000" d="M 16.5,16.5 C 20.1667,16.5 23.8333,16.5 27.5,16.5C 27.5,20.1667 27.5,23.8333 27.5,27.5C 23.8333,27.5 20.1667,27.5 16.5,27.5C 16.5,23.8333 16.5,20.1667 16.5,16.5 Z M 19.5,19.5 C 21.1667,19.5 22.8333,19.5 24.5,19.5C 24.5,21.1667 24.5,22.8333 24.5,24.5C 22.8333,24.5 21.1667,24.5 19.5,24.5C 19.5,22.8333 19.5,21.1667 19.5,19.5 Z"/></g>
</svg>
