<?xml version="1.0" encoding="UTF-8"?>
<!DOCTYPE svg PUBLIC "-//W3C//DTD SVG 1.1//EN" "http://www.w3.org/Graphics/SVG/1.1/DTD/svg11.dtd">
<svg xmlns="http://www.w3.org/2000/svg" version="1.1" width="128px" height="128px" style="shape-rendering:geometricPrecision; text-rendering:geometricPrecision; image-rendering:optimizeQuality; fill-rule:evenodd; clip-rule:evenodd" xmlns:xlink="http://www.w3.org/1999/xlink">
<g><path style="opacity:0.826" fill="#000000" d="M 23.5,3.5 C 50.1687,3.33336 76.8354,3.50003 103.5,4C 113.333,7.16667 119.833,13.6667 123,23.5C 123.667,41.5 123.667,59.5 123,77.5C 119.091,89.4083 110.924,96.2416 98.5,98C 84.8333,98.3333 71.1667,98.6667 57.5,99C 49.2584,107.745 40.5917,115.912 31.5,123.5C 30.5581,123.392 29.7247,123.059 29,122.5C 28.5003,114.173 28.3336,105.84 28.5,97.5C 16.0183,96.1903 7.85165,89.5236 4,77.5C 3.33333,59.5 3.33333,41.5 4,23.5C 7.3514,13.6498 13.8514,6.98314 23.5,3.5 Z M 31.5,7.5 C 55.2052,7.06202 78.8719,7.56202 102.5,9C 110.333,11.5 115.5,16.6667 118,24.5C 120,41.8333 120,59.1667 118,76.5C 114.876,85.9556 108.376,91.4556 98.5,93C 83.8333,93.3333 69.1667,93.6667 54.5,94C 47.3017,100.864 40.4684,108.03 34,115.5C 33.5003,108.174 33.3337,100.841 33.5,93.5C 17.4095,92.5762 8.74285,84.0762 7.5,68C 8.02469,52.7979 8.85803,37.6313 10,22.5C 14.3651,13.407 21.5317,8.40695 31.5,7.5 Z M 42.5,49.5 C 44.337,49.6395 44.6704,50.3061 43.5,51.5C 42.7025,51.0431 42.3691,50.3764 42.5,49.5 Z M 62.5,49.5 C 64.337,49.6395 64.6704,50.3061 63.5,51.5C 62.7025,51.0431 62.3691,50.3764 62.5,49.5 Z M 82.5,49.5 C 84.337,49.6395 84.6704,50.3061 83.5,51.5C 82.7025,51.0431 82.3691,50.3764 82.5,49.5 Z"/></g>
<g><path style="opacity:0.768" fill="#000000" d="M 39.5,44.5 C 49.4874,43.3319 52.154,47.1653 47.5,56C 39.1656,58.3335 35.9989,55.1669 38,46.5C 38.7172,45.9558 39.2172,45.2891 39.5,44.5 Z M 42.5,49.5 C 42.3691,50.3764 42.7025,51.0431 43.5,51.5C 44.6704,50.3061 44.337,49.6395 42.5,49.5 Z"/></g>
<g><path style="opacity:0.768" fill="#000000" d="M 59.5,44.5 C 69.4874,43.3319 72.154,47.1653 67.5,56C 59.1656,58.3335 55.9989,55.1669 58,46.5C 58.7172,45.9558 59.2172,45.2891 59.5,44.5 Z M 62.5,49.5 C 62.3691,50.3764 62.7025,51.0431 63.5,51.5C 64.6704,50.3061 64.337,49.6395 62.5,49.5 Z"/></g>
<g><path style="opacity:0.768" fill="#000000" d="M 79.5,44.5 C 89.4874,43.3319 92.154,47.1653 87.5,56C 79.1656,58.3335 75.9989,55.1669 78,46.5C 78.7172,45.9558 79.2172,45.2891 79.5,44.5 Z M 82.5,49.5 C 82.3691,50.3764 82.7025,51.0431 83.5,51.5C 84.6704,50.3061 84.337,49.6395 82.5,49.5 Z"/></g>
</svg>
