<svg xmlns="http://www.w3.org/2000/svg" version="1.1" width="32px" height="32px" style="shape-rendering:geometricPrecision; text-rendering:geometricPrecision; image-rendering:optimizeQuality; fill-rule:evenodd; clip-rule:evenodd" xmlns:xlink="http://www.w3.org/1999/xlink">
<g><path style="opacity:0.884"  d="M -0.5,4.5 C 10.1667,4.5 20.8333,4.5 31.5,4.5C 31.5,5.83333 31.5,7.16667 31.5,8.5C 20.8333,8.5 10.1667,8.5 -0.5,8.5C -0.5,7.16667 -0.5,5.83333 -0.5,4.5 Z"/></g>
<g><path style="opacity:0.892"  d="M -0.5,13.5 C 10.1667,13.5 20.8333,13.5 31.5,13.5C 31.5,14.8333 31.5,16.1667 31.5,17.5C 20.8333,17.5 10.1667,17.5 -0.5,17.5C -0.5,16.1667 -0.5,14.8333 -0.5,13.5 Z"/></g>
<g><path style="opacity:0.884"  d="M -0.5,22.5 C 10.1667,22.5 20.8333,22.5 31.5,22.5C 31.5,23.8333 31.5,25.1667 31.5,26.5C 20.8333,26.5 10.1667,26.5 -0.5,26.5C -0.5,25.1667 -0.5,23.8333 -0.5,22.5 Z"/></g>
</svg>
