<svg xmlns="http://www.w3.org/2000/svg" version="1.1" width="32px" height="32px" style="shape-rendering:geometricPrecision; text-rendering:geometricPrecision; image-rendering:optimizeQuality; fill-rule:evenodd; clip-rule:evenodd" xmlns:xlink="http://www.w3.org/1999/xlink">
<g><path style="opacity:0.872" d="M 14.5,-0.5 C 15.1667,-0.5 15.8333,-0.5 16.5,-0.5C 17.7679,3.202 19.4346,6.702 21.5,10C 24.8168,10.4983 28.1501,10.665 31.5,10.5C 31.5,11.5 31.5,12.5 31.5,13.5C 28.9974,15.8327 26.3307,17.9993 23.5,20C 25.2516,23.7953 25.9183,27.6287 25.5,31.5C 24.8333,31.5 24.1667,31.5 23.5,31.5C 21.1959,29.343 18.5293,27.6763 15.5,26.5C 12.4707,27.6763 9.80407,29.343 7.5,31.5C 6.83333,31.5 6.16667,31.5 5.5,31.5C 5.08174,27.6287 5.74841,23.7953 7.5,20C 4.66927,17.9993 2.0026,15.8327 -0.5,13.5C -0.5,12.5 -0.5,11.5 -0.5,10.5C 2.8499,10.665 6.18323,10.4983 9.5,10C 11.5654,6.702 13.2321,3.202 14.5,-0.5 Z"/></g>
</svg>
