<svg xmlns="http://www.w3.org/2000/svg" version="1.1" width="128px" height="128px" style="shape-rendering:geometricPrecision; text-rendering:geometricPrecision; image-rendering:optimizeQuality; fill-rule:evenodd; clip-rule:evenodd" xmlns:xlink="http://www.w3.org/1999/xlink">
<g><path style="opacity:0.956" fill="#fff" d="M 29.5,-0.5 C 32.1667,-0.5 34.8333,-0.5 37.5,-0.5C 48.888,3.05933 56.0547,10.726 59,22.5C 60.6162,51.1318 60.9495,79.7984 60,108.5C 56.7094,91.706 46.5427,83.0393 29.5,82.5C 29.5,54.8333 29.5,27.1667 29.5,-0.5 Z"/></g>
<g><path style="opacity:0.93" fill="#fff" d="M 14.5,14.5 C 17.1667,14.5 19.8333,14.5 22.5,14.5C 22.5,39.5 22.5,64.5 22.5,89.5C 29.7038,88.945 36.7038,89.7783 43.5,92C 49.8306,95.8254 52.4972,101.325 51.5,108.5C 48.9302,107.366 46.2635,106.532 43.5,106C 33.8391,105.5 24.1724,105.334 14.5,105.5C 14.5,75.1667 14.5,44.8333 14.5,14.5 Z"/></g>
<g><path style="opacity:0.97" fill="#fff" d="M 82.5,21.5 C 92.5,21.5 102.5,21.5 112.5,21.5C 112.5,49.5 112.5,77.5 112.5,105.5C 102.828,105.334 93.1609,105.5 83.5,106C 77.7026,107.097 72.3693,109.264 67.5,112.5C 66.3335,84.1725 66.1668,55.8392 67,27.5C 72.0016,24.7824 77.1683,22.7824 82.5,21.5 Z"/></g>
<g><path style="opacity:0.929" fill="#fff" d="M -0.5,29.5 C 2.16667,29.5 4.83333,29.5 7.5,29.5C 7.5,57.1667 7.5,84.8333 7.5,112.5C 20.1711,112.333 32.8377,112.5 45.5,113C 49.7789,114.473 53.7789,116.473 57.5,119C 61.5,119.667 65.5,119.667 69.5,119C 73.2211,116.473 77.2211,114.473 81.5,113C 94.1623,112.5 106.829,112.333 119.5,112.5C 119.5,87.1667 119.5,61.8333 119.5,36.5C 122.167,36.5 124.833,36.5 127.5,36.5C 127.5,64.5 127.5,92.5 127.5,120.5C 113.496,120.333 99.496,120.5 85.5,121C 80.8541,121.651 77.1874,123.818 74.5,127.5C 67.1667,127.5 59.8333,127.5 52.5,127.5C 49.8126,123.818 46.1459,121.651 41.5,121C 27.504,120.5 13.504,120.333 -0.5,120.5C -0.5,90.1667 -0.5,59.8333 -0.5,29.5 Z"/></g>
</svg>
