<?xml version="1.0" standalone="no"?>
<!DOCTYPE svg PUBLIC "-//W3C//DTD SVG 20010904//EN"
 "http://www.w3.org/TR/2001/REC-SVG-20010904/DTD/svg10.dtd">
<svg version="1.0" xmlns="http://www.w3.org/2000/svg"
 width="200.000000pt" height="66.000000pt" viewBox="0 0 200.000000 66.000000"
 preserveAspectRatio="xMidYMid meet">

<g transform="translate(0.000000,66.000000) scale(0.100000,-0.100000)"
fill="#000000" stroke="none">
<path fill="red" d="M1450 606 c0 -30 -4 -57 -9 -60 -5 -3 -12 -67 -16 -142 -6 -110 -10
-134 -21 -130 -8 3 -14 -1 -14 -9 0 -20 -19 -19 -26 0 -10 25 -24 17 -24 -15
0 -16 -4 -30 -10 -30 -5 0 -10 5 -10 10 0 6 -7 10 -15 10 -8 0 -15 -7 -15 -15
0 -8 -6 -15 -14 -15 -7 0 -27 -14 -45 -31 -18 -16 -38 -28 -44 -26 -7 2 -20 0
-29 -5 -13 -6 -18 -5 -18 7 0 19 -19 20 -26 0 -5 -13 -8 -13 -21 0 -8 8 -23
15 -34 15 -11 0 -19 7 -19 17 0 9 -7 25 -17 35 -11 12 -20 50 -27 113 -5 52
-13 95 -18 95 -4 0 -8 -13 -8 -30 0 -16 -4 -30 -10 -30 -5 0 -10 23 -10 50 0
28 -4 50 -10 50 -5 0 -10 25 -10 55 0 65 -12 71 -29 15 -12 -42 -31 -46 -31
-6 0 29 -6 35 -31 29 -12 -3 -19 -14 -19 -29 0 -13 -4 -24 -10 -24 -5 0 -11
-12 -11 -27 -1 -17 -3 -21 -6 -10 -8 31 -20 18 -33 -38 -12 -49 -15 -54 -35
-49 -19 5 -24 -1 -35 -40 -7 -25 -17 -46 -21 -46 -5 0 -9 -14 -9 -31 0 -32
-27 -153 -40 -179 -5 -11 -31 -17 -96 -21 l-89 -5 87 -2 c76 -2 91 1 108 18
11 11 20 30 20 42 0 23 16 81 31 110 5 10 9 25 9 34 0 15 23 44 34 44 3 0 6
-9 6 -20 0 -11 5 -20 10 -20 6 0 10 15 10 33 0 46 8 50 36 20 23 -25 24 -25
24 -4 0 12 6 21 15 21 8 0 15 7 15 15 0 8 5 15 10 15 6 0 10 -4 10 -9 0 -5 9
-7 20 -4 11 3 20 14 20 24 0 11 3 19 8 19 14 0 32 -54 32 -97 0 -24 5 -43 10
-43 6 0 10 9 10 20 0 11 4 20 10 20 5 0 12 -27 16 -60 4 -33 11 -60 15 -60 5
0 9 -7 9 -16 0 -34 55 -61 138 -68 46 -4 55 -2 78 21 14 14 37 26 52 27 30 1
44 11 57 41 8 19 9 19 12 -2 5 -24 43 -34 43 -11 0 6 9 21 20 33 15 16 21 41
26 108 4 48 11 90 16 93 4 3 8 14 8 25 0 10 5 19 10 19 6 0 10 -7 10 -16 0 -9
8 -24 18 -33 10 -9 24 -43 30 -76 15 -72 41 -145 53 -145 5 0 9 -6 9 -13 0 -7
10 -19 21 -27 12 -8 29 -22 38 -31 9 -8 22 -14 29 -13 6 1 19 2 27 3 8 0 15 7
15 15 0 8 9 18 20 21 13 4 20 15 20 31 0 13 5 24 10 24 6 0 10 14 10 30 0 17
5 30 10 30 6 0 10 14 10 30 0 17 4 30 9 30 5 0 12 18 16 40 4 22 11 37 17 34
5 -3 15 2 22 12 12 16 14 10 21 -44 4 -34 11 -65 16 -68 5 -3 9 -25 9 -50 l0
-45 38 3 c40 3 52 12 52 42 0 20 -31 52 -61 61 -15 5 -19 16 -19 57 0 50 -16
123 -32 144 -4 6 -11 32 -14 58 -4 25 -9 46 -11 46 -16 0 -33 -35 -33 -69 0
-23 -4 -41 -9 -41 -5 0 -11 -15 -14 -32 -17 -103 -40 -198 -47 -198 -4 0 -17
-26 -29 -57 -18 -48 -26 -58 -46 -59 -14 -1 -25 2 -25 7 0 6 -9 20 -21 32 -11
12 -27 37 -35 55 -7 18 -18 31 -24 27 -6 -4 -10 4 -10 19 0 14 -4 28 -10 31
-5 3 -10 21 -10 40 0 19 -4 36 -9 39 -4 3 -11 33 -15 66 -4 33 -13 66 -21 74
-8 8 -15 26 -15 40 0 14 -4 28 -10 31 -5 3 -10 17 -10 31 0 13 -4 24 -10 24
-5 0 -10 -24 -10 -54z"/>
<path fill="red" d="M192 440 c-6 -22 -12 -75 -12 -119 0 -80 -11 -110 -25 -68 -6 16 -10
3 -15 -48 -6 -65 -21 -113 -45 -142 -5 -7 -16 -19 -23 -28 -11 -13 -10 -15 8
-15 11 0 20 7 20 15 0 8 4 15 8 15 9 0 42 64 42 82 0 6 9 18 20 28 17 14 21
36 28 131 8 112 8 113 16 54 10 -88 35 -163 62 -190 13 -13 24 -30 24 -37 1
-7 16 -22 34 -34 36 -23 101 -40 91 -24 -3 6 -16 10 -29 10 -22 0 -64 43 -96
98 -8 15 -21 32 -27 40 -17 18 -31 74 -39 157 -4 39 -12 80 -18 92 -11 21 -12
21 -24 -17z"/>
</g>
</svg>
