<?xml version="1.0" encoding="UTF-8"?>
<!DOCTYPE svg PUBLIC "-//W3C//DTD SVG 1.1//EN" "http://www.w3.org/Graphics/SVG/1.1/DTD/svg11.dtd">
<svg xmlns="http://www.w3.org/2000/svg" version="1.1" width="256px" height="256px" style="shape-rendering:geometricPrecision; text-rendering:geometricPrecision; image-rendering:optimizeQuality; fill-rule:evenodd; clip-rule:evenodd" xmlns:xlink="http://www.w3.org/1999/xlink">
<g><path style="opacity:0.946" fill="#000000" d="M 38.5,105.5 C 57.3034,106.139 65.47,115.806 63,134.5C 55.0757,149.473 43.5757,152.973 28.5,145C 20.1327,136.828 18.2993,127.328 23,116.5C 26.7464,110.72 31.9131,107.054 38.5,105.5 Z"/></g>
<g><path style="opacity:0.941" fill="#000000" d="M 123.5,105.5 C 141.312,105.145 149.812,113.812 149,131.5C 144.406,146.216 134.573,151.716 119.5,148C 107.586,141.998 103.419,132.498 107,119.5C 110.283,112.124 115.783,107.457 123.5,105.5 Z"/></g>
<g><path style="opacity:0.946" fill="#000000" d="M 208.5,105.5 C 227.35,105.514 235.85,114.847 234,133.5C 227.754,147.703 217.254,152.203 202.5,147C 190.79,138.41 188.29,127.577 195,114.5C 198.517,109.838 203.017,106.838 208.5,105.5 Z"/></g>
</svg>
