<svg xmlns="http://www.w3.org/2000/svg" version="1.1" width="32px" height="32px" style="shape-rendering:geometricPrecision; text-rendering:geometricPrecision; image-rendering:optimizeQuality; fill-rule:evenodd; clip-rule:evenodd" xmlns:xlink="http://www.w3.org/1999/xlink">
<g><path style="opacity:0.971" fill="#000000" d="M 2.5,2.5 C 5.89838,2.17964 9.23171,2.51298 12.5,3.5C 9.91355,4.48002 7.24688,4.81335 4.5,4.5C 4.5,11.8333 4.5,19.1667 4.5,26.5C 7.24688,26.1866 9.91355,26.52 12.5,27.5C 9.23171,28.487 5.89838,28.8204 2.5,28.5C 2.5,19.8333 2.5,11.1667 2.5,2.5 Z"/></g>
<g><path style="opacity:0.727" fill="#000000" d="M 19.5,7.5 C 31.5,12.8333 31.5,18.1667 19.5,23.5C 19.7438,20.7374 21.0771,18.5707 23.5,17C 2.16667,16 2.16667,15 23.5,14C 21.0771,12.4293 19.7438,10.2626 19.5,7.5 Z"/></g>
</svg>
