<svg xmlns="http://www.w3.org/2000/svg" version="1.1" width="128px" height="128px" style="shape-rendering:geometricPrecision; text-rendering:geometricPrecision; image-rendering:optimizeQuality; fill-rule:evenodd; clip-rule:evenodd" xmlns:xlink="http://www.w3.org/1999/xlink">
<g><path style="opacity:0.953" d="M 52.5,-0.5 C 59.8333,-0.5 67.1667,-0.5 74.5,-0.5C 103.167,6.16667 120.833,23.8333 127.5,52.5C 127.5,59.8333 127.5,67.1667 127.5,74.5C 120.833,103.167 103.167,120.833 74.5,127.5C 67.1667,127.5 59.8333,127.5 52.5,127.5C 23.8333,120.833 6.16667,103.167 -0.5,74.5C -0.5,67.1667 -0.5,59.8333 -0.5,52.5C 6.16667,23.8333 23.8333,6.16667 52.5,-0.5 Z M 59.5,27.5 C 72.8547,26.6957 81.3547,32.6957 85,45.5C 86.2947,58.8747 80.4614,67.3747 67.5,71C 54.1253,72.2947 45.6253,66.4614 42,53.5C 40.9101,40.102 46.7434,31.4354 59.5,27.5 Z M 57.5,72.5 C 77.5933,71.4603 92.76,79.4603 103,96.5C 103.788,98.1647 104.122,99.8314 104,101.5C 83.7158,121.074 60.8825,124.574 35.5,112C 30.748,109.252 26.5813,105.752 23,101.5C 26.7903,89.5202 34.6237,81.0202 46.5,76C 50.2541,74.6912 53.9207,73.5246 57.5,72.5 Z"/></g>
</svg>
