<?xml version="1.0" encoding="UTF-8"?>
<!DOCTYPE svg PUBLIC "-//W3C//DTD SVG 1.1//EN" "http://www.w3.org/Graphics/SVG/1.1/DTD/svg11.dtd">
<svg xmlns="http://www.w3.org/2000/svg" version="1.1" width="72px" height="72px" style="shape-rendering:geometricPrecision; text-rendering:geometricPrecision; image-rendering:optimizeQuality; fill-rule:evenodd; clip-rule:evenodd" xmlns:xlink="http://www.w3.org/1999/xlink">
<g><path style="opacity:0.985" fill="#0676fe" d="M 13.5,-0.5 C 28.1667,-0.5 42.8333,-0.5 57.5,-0.5C 64.7237,1.05627 69.3903,5.3896 71.5,12.5C 71.5,19.5 71.5,26.5 71.5,33.5C 66.8483,27.1003 60.515,24.7669 52.5,26.5C 50.0491,13.9228 42.3824,8.75617 29.5,11C 23.008,14.1551 19.6747,19.3218 19.5,26.5C 11.0877,24.6055 4.42102,26.9388 -0.5,33.5C -0.5,26.5 -0.5,19.5 -0.5,12.5C 1.60968,5.3896 6.27635,1.05627 13.5,-0.5 Z"/></g>
<g><path style="opacity:1" fill="#f5f9ff" d="M 52.5,26.5 C 49.8333,26.5 47.1667,26.5 44.5,26.5C 42.8084,18.4872 38.1417,15.9872 30.5,19C 27.9756,20.883 26.6423,23.383 26.5,26.5C 24.1667,26.5 21.8333,26.5 19.5,26.5C 19.6747,19.3218 23.008,14.1551 29.5,11C 42.3824,8.75617 50.0491,13.9228 52.5,26.5 Z"/></g>
<g><path style="opacity:1" fill="#0975ff" d="M 44.5,26.5 C 38.5,26.5 32.5,26.5 26.5,26.5C 26.6423,23.383 27.9756,20.883 30.5,19C 38.1417,15.9872 42.8084,18.4872 44.5,26.5 Z"/></g>
<g><path style="opacity:1" fill="#fc6661" d="M 19.5,26.5 C 21.8333,26.5 24.1667,26.5 26.5,26.5C 32.5,26.5 38.5,26.5 44.5,26.5C 47.1667,26.5 49.8333,26.5 52.5,26.5C 60.515,24.7669 66.8483,27.1003 71.5,33.5C 71.5,36.1667 71.5,38.8333 71.5,41.5C 47.4604,46.7941 23.4604,46.7941 -0.5,41.5C -0.5,38.8333 -0.5,36.1667 -0.5,33.5C 4.42102,26.9388 11.0877,24.6055 19.5,26.5 Z"/></g>
<g><path style="opacity:0.999" fill="#fff6f5" d="M -0.5,41.5 C 23.4604,46.7941 47.4604,46.7941 71.5,41.5C 71.5,44.1667 71.5,46.8333 71.5,49.5C 61.2244,51.2428 50.8911,52.5761 40.5,53.5C 41.5293,61.9932 38.3627,64.3266 31,60.5C 30.5034,58.1902 30.3367,55.8568 30.5,53.5C 19.9825,53.4735 9.64916,52.1401 -0.5,49.5C -0.5,46.8333 -0.5,44.1667 -0.5,41.5 Z"/></g>
<g><path style="opacity:0.969" fill="#ff6560" d="M -0.5,49.5 C 9.64916,52.1401 19.9825,53.4735 30.5,53.5C 30.3367,55.8568 30.5034,58.1902 31,60.5C 38.3627,64.3266 41.5293,61.9932 40.5,53.5C 50.8911,52.5761 61.2244,51.2428 71.5,49.5C 71.5,52.5 71.5,55.5 71.5,58.5C 69.5,65.1667 65.1667,69.5 58.5,71.5C 43.1667,71.5 27.8333,71.5 12.5,71.5C 5.83333,69.5 1.5,65.1667 -0.5,58.5C -0.5,55.5 -0.5,52.5 -0.5,49.5 Z"/></g>
</svg>
