<?xml version="1.0" encoding="UTF-8"?>
<!DOCTYPE svg PUBLIC "-//W3C//DTD SVG 1.1//EN" "http://www.w3.org/Graphics/SVG/1.1/DTD/svg11.dtd">
<svg xmlns="http://www.w3.org/2000/svg" version="1.1" width="72px" height="72px" style="shape-rendering:geometricPrecision; text-rendering:geometricPrecision; image-rendering:optimizeQuality; fill-rule:evenodd; clip-rule:evenodd" xmlns:xlink="http://www.w3.org/1999/xlink">
<g><path style="opacity:0.991" fill="#0377ff" d="M 12.5,-0.5 C 27.8333,-0.5 43.1667,-0.5 58.5,-0.5C 65.1667,1.5 69.5,5.83333 71.5,12.5C 71.5,27.8333 71.5,43.1667 71.5,58.5C 69.5,65.1667 65.1667,69.5 58.5,71.5C 43.1667,71.5 27.8333,71.5 12.5,71.5C 5.83333,69.5 1.5,65.1667 -0.5,58.5C -0.5,43.1667 -0.5,27.8333 -0.5,12.5C 1.5,5.83333 5.83333,1.5 12.5,-0.5 Z"/></g>
<g><path style="opacity:1" fill="#f5f9ff" d="M 38.5,19.5 C 38.5,23.8333 38.5,28.1667 38.5,32.5C 39.791,32.7373 40.791,32.404 41.5,31.5C 46.4345,28.9699 49.4345,24.9699 50.5,19.5C 53.5719,19.1826 56.5719,19.5159 59.5,20.5C 57.4069,26.3605 54.0735,31.3605 49.5,35.5C 55.1871,39.3546 59.1871,44.5213 61.5,51C 58.1832,51.4983 54.8499,51.665 51.5,51.5C 49.9521,44.6236 45.6188,40.9569 38.5,40.5C 38.5,44.1667 38.5,47.8333 38.5,51.5C 24.6537,51.492 15.8204,44.8253 12,31.5C 11.1721,27.534 10.6721,23.534 10.5,19.5C 13.5,19.5 16.5,19.5 19.5,19.5C 18.7011,28.9589 22.2011,36.2922 30,41.5C 30.4997,34.1742 30.6663,26.8409 30.5,19.5C 33.1667,19.5 35.8333,19.5 38.5,19.5 Z"/></g>
<g><path style="opacity:1" fill="#6aaeff" d="M 38.5,19.5 C 38.8693,23.7675 39.8693,27.7675 41.5,31.5C 40.791,32.404 39.791,32.7373 38.5,32.5C 38.5,28.1667 38.5,23.8333 38.5,19.5 Z"/></g>
</svg>
